<svg width="272" height="272" viewBox="0 0 272 272" fill="none" xmlns="http://www.w3.org/2000/svg">
<path d="M215.688 82.2935C195.345 53.7834 166.185 52.4258 155.336 52.4258L158.505 10C196.48 10 235.133 33.7584 247 53.7834L215.688 82.2935Z" fill="#E82E28"/>
<path d="M150.113 52.4258C129.769 52.4258 104.137 66.002 98.7123 71.7719L66.5016 41.5648C94.3045 17.1275 124.005 10 152.825 10L150.113 52.4258Z" fill="#F56B28"/>
<path d="M71.5872 116.574C73.2825 102.318 86.1668 81.6147 95.1976 74.6033L62.4326 45.9771C46.1577 59.5533 30.9592 89.2149 28.5266 105.034L71.5872 116.574Z" fill="#F4B413"/>
<path d="M72.2657 159.678C69.2142 151.533 67.5189 126.756 70.2314 120.986L27.227 110.464C22.9349 134.135 25.4753 155.266 29.5439 170.2L72.2657 159.678Z" fill="#B25580"/>
<path d="M92.9479 193.958C82.098 183.436 75.9089 169.329 74.2996 164.09L32.2562 176.309C37.3421 192.6 50.2264 212.625 59.381 221.789L92.9479 193.958Z" fill="#982EAC"/>
<path d="M102.781 252.336C86.5059 245.208 73.2825 235.705 64.1279 226.88L97.0167 197.691C100.407 201.425 114.309 209.91 119.734 211.946L102.781 252.336Z" fill="#6253B5"/>
<path d="M153.64 261.5C138.721 261.5 123.463 260.142 109.562 254.372L125.837 213.983C132.618 216.698 143.129 218.735 150.927 218.735L153.64 261.5Z" fill="#1E84BF"/>
<path d="M161.438 261.161L157.37 218.056C165.507 218.056 177.374 214.662 185.173 211.607L201.108 250.979C190.258 256.409 173.644 259.803 161.438 261.161Z" fill="#0F9584"/>
<path d="M209.246 247.245L190.937 209.232C198.396 205.159 200.77 203.801 207.89 197.82L240.779 223.615C229.929 234.816 222.13 240.457 209.246 247.245Z" fill="#0C9D4E"/>
</svg>
